<svg xmlns="http://www.w3.org/2000/svg" viewBox="0 0 512 512" width="48" height="48">
  <defs>
    <linearGradient id="grad1" x1="0%" y1="0%" x2="100%" y2="100%">
      <stop offset="0%" style="stop-color:#4285f4;stop-opacity:1" />
      <stop offset="100%" style="stop-color:#1a73e8;stop-opacity:1" />
    </linearGradient>
  </defs>
  <circle cx="256" cy="256" r="256" fill="url(#grad1)"/>
  <path d="M256 150c-58.65 0-106 47.35-106 106s47.35 106 106 106 106-47.35 106-106-47.35-106-106-106zm0 192c-47.4 0-86-38.6-86-86s38.6-86 86-86 86 38.6 86 86-38.6 86-86 86z" fill="white"/>
  <path d="M256 190c-36.45 0-66 29.55-66 66s29.55 66 66 66 66-29.55 66-66-29.55-66-66-66zm0 112c-25.36 0-46-20.64-46-46s20.64-46 46-46 46 20.64 46 46-20.64 46-46 46z" fill="white"/>
  <rect x="220" y="240" width="72" height="32" fill="#4285f4"/>
  <text x="256" y="400" text-anchor="middle" font-family="Roboto, Arial, sans-serif" font-size="28" font-weight="500" fill="white">Scholar</text>
</svg>